<mxfile host="app.diagrams.net" modified="2023-05-02T02:24:54.933Z" agent="Mozilla/5.0 (Windows NT 10.0; Win64; x64) AppleWebKit/537.36 (KHTML, like Gecko) Chrome/112.0.0.0 Safari/537.36" version="21.2.3" etag="G6LSxNQnVGRB5vcB1PD3" type="github">
  <diagram name="Page-1" id="Dg8eEz2HgzWtZS1r751G">
    <mxGraphModel>
      <root>
        <mxCell id="0" />
        <mxCell id="1" parent="0" />
      </root>
    </mxGraphModel>
  </diagram>
</mxfile>
